<mxfile host="app.diagrams.net" agent="Mozilla/5.0 (Macintosh; Intel Mac OS X 10_15_7) AppleWebKit/537.36 (KHTML, like Gecko) Chrome/134.0.0.0 Safari/537.36" version="26.1.1">
  <diagram name="Page-1" id="9H05neVimTmSRMchl60z">
    <mxGraphModel dx="2601" dy="1049" grid="1" gridSize="10" guides="1" tooltips="1" connect="1" arrows="1" fold="1" page="1" pageScale="1" pageWidth="827" pageHeight="1169" math="0" shadow="0">
      <root>
        <mxCell id="0" />
        <mxCell id="1" parent="0" />
        <mxCell id="NXVQfaaovagoxvDleOKi-1" value="" style="rounded=0;whiteSpace=wrap;html=1;" vertex="1" parent="1">
          <mxGeometry x="110" y="180" width="1090" height="430" as="geometry" />
        </mxCell>
        <mxCell id="NXVQfaaovagoxvDleOKi-6" value="" style="rounded=1;whiteSpace=wrap;html=1;" vertex="1" parent="1">
          <mxGeometry x="260" y="200" width="560" height="360" as="geometry" />
        </mxCell>
        <mxCell id="NXVQfaaovagoxvDleOKi-18" style="edgeStyle=orthogonalEdgeStyle;rounded=0;orthogonalLoop=1;jettySize=auto;html=1;exitX=0.5;exitY=1;exitDx=0;exitDy=0;" edge="1" parent="1" source="NXVQfaaovagoxvDleOKi-2" target="NXVQfaaovagoxvDleOKi-15">
          <mxGeometry relative="1" as="geometry" />
        </mxCell>
        <mxCell id="NXVQfaaovagoxvDleOKi-19" value="get slots for list&lt;div&gt;of interviewers&lt;/div&gt;" style="edgeLabel;html=1;align=center;verticalAlign=middle;resizable=0;points=[];" vertex="1" connectable="0" parent="NXVQfaaovagoxvDleOKi-18">
          <mxGeometry x="0.0121" relative="1" as="geometry">
            <mxPoint y="-14" as="offset" />
          </mxGeometry>
        </mxCell>
        <mxCell id="NXVQfaaovagoxvDleOKi-2" value="Interview selector" style="rounded=1;whiteSpace=wrap;html=1;" vertex="1" parent="1">
          <mxGeometry x="330" y="50" width="120" height="60" as="geometry" />
        </mxCell>
        <mxCell id="NXVQfaaovagoxvDleOKi-3" value="GoodTime" style="rounded=1;whiteSpace=wrap;html=1;" vertex="1" parent="1">
          <mxGeometry x="1240" y="210" width="120" height="60" as="geometry" />
        </mxCell>
        <mxCell id="NXVQfaaovagoxvDleOKi-4" value="LeavePlanner/&lt;div&gt;Calendar&lt;/div&gt;" style="rounded=1;whiteSpace=wrap;html=1;" vertex="1" parent="1">
          <mxGeometry x="1240" y="450" width="120" height="60" as="geometry" />
        </mxCell>
        <mxCell id="NXVQfaaovagoxvDleOKi-44" style="edgeStyle=orthogonalEdgeStyle;rounded=0;orthogonalLoop=1;jettySize=auto;html=1;exitX=1;exitY=0.5;exitDx=0;exitDy=0;entryX=0;entryY=0.5;entryDx=0;entryDy=0;" edge="1" parent="1" source="NXVQfaaovagoxvDleOKi-5" target="NXVQfaaovagoxvDleOKi-15">
          <mxGeometry relative="1" as="geometry">
            <Array as="points">
              <mxPoint x="140" y="530" />
              <mxPoint x="140" y="365" />
            </Array>
          </mxGeometry>
        </mxCell>
        <mxCell id="NXVQfaaovagoxvDleOKi-45" value="lock decided&lt;div&gt;interviewer&amp;nbsp;&lt;span style=&quot;background-color: light-dark(#ffffff, var(--ge-dark-color, #121212)); color: light-dark(rgb(0, 0, 0), rgb(255, 255, 255));&quot;&gt;slot&lt;/span&gt;&lt;/div&gt;" style="edgeLabel;html=1;align=center;verticalAlign=middle;resizable=0;points=[];" vertex="1" connectable="0" parent="NXVQfaaovagoxvDleOKi-44">
          <mxGeometry x="0.4707" y="1" relative="1" as="geometry">
            <mxPoint as="offset" />
          </mxGeometry>
        </mxCell>
        <mxCell id="NXVQfaaovagoxvDleOKi-5" value="Scheduling Service" style="rounded=1;whiteSpace=wrap;html=1;" vertex="1" parent="1">
          <mxGeometry x="-120" y="500" width="120" height="60" as="geometry" />
        </mxCell>
        <mxCell id="NXVQfaaovagoxvDleOKi-9" style="edgeStyle=orthogonalEdgeStyle;rounded=0;orthogonalLoop=1;jettySize=auto;html=1;entryX=0;entryY=0.5;entryDx=0;entryDy=0;" edge="1" parent="1" target="NXVQfaaovagoxvDleOKi-8">
          <mxGeometry relative="1" as="geometry">
            <mxPoint x="990" y="365" as="sourcePoint" />
            <Array as="points">
              <mxPoint x="990" y="365" />
              <mxPoint x="990" y="240" />
            </Array>
          </mxGeometry>
        </mxCell>
        <mxCell id="NXVQfaaovagoxvDleOKi-12" style="edgeStyle=orthogonalEdgeStyle;rounded=0;orthogonalLoop=1;jettySize=auto;html=1;exitX=1;exitY=0.5;exitDx=0;exitDy=0;entryX=0;entryY=0.5;entryDx=0;entryDy=0;" edge="1" parent="1" source="NXVQfaaovagoxvDleOKi-22" target="NXVQfaaovagoxvDleOKi-11">
          <mxGeometry relative="1" as="geometry">
            <Array as="points">
              <mxPoint x="930" y="365" />
              <mxPoint x="990" y="365" />
              <mxPoint x="990" y="480" />
            </Array>
          </mxGeometry>
        </mxCell>
        <mxCell id="NXVQfaaovagoxvDleOKi-31" style="edgeStyle=orthogonalEdgeStyle;rounded=0;orthogonalLoop=1;jettySize=auto;html=1;exitX=0.75;exitY=0;exitDx=0;exitDy=0;entryX=0.5;entryY=0;entryDx=0;entryDy=0;" edge="1" parent="1" source="NXVQfaaovagoxvDleOKi-7" target="NXVQfaaovagoxvDleOKi-22">
          <mxGeometry relative="1" as="geometry" />
        </mxCell>
        <mxCell id="NXVQfaaovagoxvDleOKi-32" value="&lt;span style=&quot;color: rgba(0, 0, 0, 0); font-family: monospace; font-size: 0px; text-align: start; background-color: rgb(251, 251, 251);&quot;&gt;%3CmxGraphModel%3E%3Croot%3E%3CmxCell%20id%3D%220%22%2F%3E%3CmxCell%20id%3D%221%22%20parent%3D%220%22%2F%3E%3CmxCell%20id%3D%222%22%20style%3D%22edgeStyle%3DorthogonalEdgeStyle%3Brounded%3D0%3BorthogonalLoop%3D1%3BjettySize%3Dauto%3Bhtml%3D1%3BexitX%3D1%3BexitY%3D0.5%3BexitDx%3D0%3BexitDy%3D0%3BentryX%3D0%3BentryY%3D0.5%3BentryDx%3D0%3BentryDy%3D0%3B%22%20edge%3D%221%22%20parent%3D%221%22%3E%3CmxGeometry%20relative%3D%221%22%20as%3D%22geometry%22%3E%3CmxPoint%20x%3D%22750%22%20y%3D%22365%22%20as%3D%22sourcePoint%22%2F%3E%3CmxPoint%20x%3D%22830%22%20y%3D%22365%22%20as%3D%22targetPoint%22%2F%3E%3C%2FmxGeometry%3E%3C%2FmxCell%3E%3C%2Froot%3E%3C%2FmxGraphModel%3E&lt;/span&gt;&lt;span style=&quot;color: rgba(0, 0, 0, 0); font-family: monospace; font-size: 0px; text-align: start; background-color: rgb(251, 251, 251);&quot;&gt;%3CmxGraphModel%3E%3Croot%3E%3CmxCell%20id%3D%220%22%2F%3E%3CmxCell%20id%3D%221%22%20parent%3D%220%22%2F%3E%3CmxCell%20id%3D%222%22%20style%3D%22edgeStyle%3DorthogonalEdgeStyle%3Brounded%3D0%3BorthogonalLoop%3D1%3BjettySize%3Dauto%3Bhtml%3D1%3BexitX%3D1%3BexitY%3D0.5%3BexitDx%3D0%3BexitDy%3D0%3BentryX%3D0%3BentryY%3D0.5%3BentryDx%3D0%3BentryDy%3D0%3B%22%20edge%3D%221%22%20parent%3D%221%22%3E%3CmxGeometry%20relative%3D%221%22%20as%3D%22geometry%22%3E%3CmxPoint%20x%3D%22750%22%20y%3D%22365%22%20as%3D%22sourcePoint%22%2F%3E%3CmxPoint%20x%3D%22830%22%20y%3D%22365%22%20as%3D%22targetPoint%22%2F%3E%3C%2FmxGeometry%3E%3C%2FmxCell%3E%3C%2Froot%3E%3C%2FmxGraphModel%3&lt;/span&gt;" style="edgeLabel;html=1;align=center;verticalAlign=middle;resizable=0;points=[];" vertex="1" connectable="0" parent="NXVQfaaovagoxvDleOKi-31">
          <mxGeometry x="-0.2984" y="1" relative="1" as="geometry">
            <mxPoint as="offset" />
          </mxGeometry>
        </mxCell>
        <mxCell id="NXVQfaaovagoxvDleOKi-33" value="get preferred slot for&lt;div&gt;next&amp;nbsp;&lt;span style=&quot;background-color: light-dark(#ffffff, var(--ge-dark-color, #121212)); color: light-dark(rgb(0, 0, 0), rgb(255, 255, 255));&quot;&gt;n days&lt;/span&gt;&lt;/div&gt;" style="edgeLabel;html=1;align=center;verticalAlign=middle;resizable=0;points=[];" vertex="1" connectable="0" parent="NXVQfaaovagoxvDleOKi-31">
          <mxGeometry x="-0.2455" relative="1" as="geometry">
            <mxPoint as="offset" />
          </mxGeometry>
        </mxCell>
        <mxCell id="NXVQfaaovagoxvDleOKi-34" style="edgeStyle=orthogonalEdgeStyle;rounded=0;orthogonalLoop=1;jettySize=auto;html=1;exitX=0.75;exitY=0;exitDx=0;exitDy=0;entryX=0.5;entryY=0;entryDx=0;entryDy=0;" edge="1" parent="1" source="NXVQfaaovagoxvDleOKi-7" target="NXVQfaaovagoxvDleOKi-22">
          <mxGeometry relative="1" as="geometry">
            <Array as="points">
              <mxPoint x="660" y="270" />
              <mxPoint x="890" y="270" />
            </Array>
          </mxGeometry>
        </mxCell>
        <mxCell id="NXVQfaaovagoxvDleOKi-35" value="get leave plans for&lt;div&gt;next n days&lt;/div&gt;" style="edgeLabel;html=1;align=center;verticalAlign=middle;resizable=0;points=[];" vertex="1" connectable="0" parent="NXVQfaaovagoxvDleOKi-34">
          <mxGeometry x="-0.182" y="2" relative="1" as="geometry">
            <mxPoint as="offset" />
          </mxGeometry>
        </mxCell>
        <mxCell id="NXVQfaaovagoxvDleOKi-7" value="Availability interface" style="rounded=1;whiteSpace=wrap;html=1;" vertex="1" parent="1">
          <mxGeometry x="570" y="350" width="120" height="60" as="geometry" />
        </mxCell>
        <mxCell id="NXVQfaaovagoxvDleOKi-36" style="edgeStyle=orthogonalEdgeStyle;rounded=0;orthogonalLoop=1;jettySize=auto;html=1;exitX=1;exitY=0.5;exitDx=0;exitDy=0;entryX=0;entryY=0.5;entryDx=0;entryDy=0;" edge="1" parent="1" source="NXVQfaaovagoxvDleOKi-8" target="NXVQfaaovagoxvDleOKi-3">
          <mxGeometry relative="1" as="geometry" />
        </mxCell>
        <mxCell id="NXVQfaaovagoxvDleOKi-8" value="Slot availability application adapter" style="rounded=1;whiteSpace=wrap;html=1;dashed=1;" vertex="1" parent="1">
          <mxGeometry x="1030" y="210" width="120" height="60" as="geometry" />
        </mxCell>
        <mxCell id="NXVQfaaovagoxvDleOKi-37" style="edgeStyle=orthogonalEdgeStyle;rounded=0;orthogonalLoop=1;jettySize=auto;html=1;exitX=1;exitY=0.5;exitDx=0;exitDy=0;entryX=0;entryY=0.5;entryDx=0;entryDy=0;" edge="1" parent="1" source="NXVQfaaovagoxvDleOKi-11" target="NXVQfaaovagoxvDleOKi-4">
          <mxGeometry relative="1" as="geometry" />
        </mxCell>
        <mxCell id="NXVQfaaovagoxvDleOKi-11" value="Leaves application adapter" style="rounded=1;whiteSpace=wrap;html=1;dashed=1;" vertex="1" parent="1">
          <mxGeometry x="1030" y="450" width="120" height="60" as="geometry" />
        </mxCell>
        <mxCell id="NXVQfaaovagoxvDleOKi-14" value="Availability service" style="text;html=1;align=center;verticalAlign=middle;whiteSpace=wrap;rounded=0;" vertex="1" parent="1">
          <mxGeometry x="140" y="180" width="130" height="30" as="geometry" />
        </mxCell>
        <mxCell id="NXVQfaaovagoxvDleOKi-15" value="Application" style="rounded=1;whiteSpace=wrap;html=1;" vertex="1" parent="1">
          <mxGeometry x="330" y="335" width="120" height="60" as="geometry" />
        </mxCell>
        <mxCell id="NXVQfaaovagoxvDleOKi-22" value="Availability service adapter" style="rounded=1;whiteSpace=wrap;html=1;dashed=1;" vertex="1" parent="1">
          <mxGeometry x="830" y="335" width="120" height="60" as="geometry" />
        </mxCell>
        <mxCell id="NXVQfaaovagoxvDleOKi-26" style="edgeStyle=orthogonalEdgeStyle;rounded=0;orthogonalLoop=1;jettySize=auto;html=1;exitX=0.75;exitY=0;exitDx=0;exitDy=0;entryX=0.5;entryY=0;entryDx=0;entryDy=0;" edge="1" parent="1" source="NXVQfaaovagoxvDleOKi-15" target="NXVQfaaovagoxvDleOKi-7">
          <mxGeometry relative="1" as="geometry">
            <mxPoint x="720" y="330" as="targetPoint" />
            <Array as="points">
              <mxPoint x="420" y="290" />
              <mxPoint x="630" y="290" />
            </Array>
          </mxGeometry>
        </mxCell>
        <mxCell id="NXVQfaaovagoxvDleOKi-27" value="get slots for next n days" style="edgeLabel;html=1;align=center;verticalAlign=middle;resizable=0;points=[];" vertex="1" connectable="0" parent="NXVQfaaovagoxvDleOKi-26">
          <mxGeometry x="0.1873" y="3" relative="1" as="geometry">
            <mxPoint x="-46" as="offset" />
          </mxGeometry>
        </mxCell>
        <mxCell id="NXVQfaaovagoxvDleOKi-29" style="edgeStyle=orthogonalEdgeStyle;rounded=0;orthogonalLoop=1;jettySize=auto;html=1;exitX=0.25;exitY=0;exitDx=0;exitDy=0;entryX=0.25;entryY=1;entryDx=0;entryDy=0;" edge="1" parent="1" source="NXVQfaaovagoxvDleOKi-15" target="NXVQfaaovagoxvDleOKi-2">
          <mxGeometry relative="1" as="geometry">
            <Array as="points">
              <mxPoint x="360" y="320" />
              <mxPoint x="330" y="320" />
              <mxPoint x="330" y="140" />
              <mxPoint x="360" y="140" />
            </Array>
          </mxGeometry>
        </mxCell>
        <mxCell id="NXVQfaaovagoxvDleOKi-30" value="return list of&lt;div&gt;available slots&lt;/div&gt;" style="edgeLabel;html=1;align=center;verticalAlign=middle;resizable=0;points=[];" vertex="1" connectable="0" parent="NXVQfaaovagoxvDleOKi-29">
          <mxGeometry x="-0.3368" y="2" relative="1" as="geometry">
            <mxPoint as="offset" />
          </mxGeometry>
        </mxCell>
        <mxCell id="NXVQfaaovagoxvDleOKi-41" value="" style="shape=cylinder3;whiteSpace=wrap;html=1;boundedLbl=1;backgroundOutline=1;size=15;" vertex="1" parent="1">
          <mxGeometry x="280" y="460" width="60" height="80" as="geometry" />
        </mxCell>
        <mxCell id="NXVQfaaovagoxvDleOKi-42" value="Stores interviewers and their available slots" style="text;html=1;align=center;verticalAlign=middle;whiteSpace=wrap;rounded=0;" vertex="1" parent="1">
          <mxGeometry x="340" y="485" width="60" height="30" as="geometry" />
        </mxCell>
        <mxCell id="NXVQfaaovagoxvDleOKi-43" style="edgeStyle=orthogonalEdgeStyle;rounded=0;orthogonalLoop=1;jettySize=auto;html=1;exitX=0.75;exitY=1;exitDx=0;exitDy=0;entryX=0.674;entryY=-0.005;entryDx=0;entryDy=0;entryPerimeter=0;" edge="1" parent="1" source="NXVQfaaovagoxvDleOKi-15" target="NXVQfaaovagoxvDleOKi-41">
          <mxGeometry relative="1" as="geometry" />
        </mxCell>
        <mxCell id="NXVQfaaovagoxvDleOKi-46" value="Application is capable of:&lt;div&gt;1. For given set of interviewers, slots for next n days are retrieved, saved in DB and returned back&lt;/div&gt;&lt;div&gt;2. If for some interviewers slots are already found in DB, check if they are unlocked - only then return that slot&lt;/div&gt;&lt;div&gt;3. Lock an interviewers&#39; slot to prevent retrieval by other parallel requests&lt;/div&gt;" style="text;html=1;align=center;verticalAlign=middle;resizable=0;points=[];autosize=1;strokeColor=none;fillColor=none;" vertex="1" parent="1">
          <mxGeometry x="113" y="628" width="600" height="70" as="geometry" />
        </mxCell>
      </root>
    </mxGraphModel>
  </diagram>
</mxfile>
